<?xml version="1.0" encoding="UTF-8" standalone="no"?><!-- Generator: Gravit.io --><svg xmlns="http://www.w3.org/2000/svg" xmlns:xlink="http://www.w3.org/1999/xlink" style="isolation:isolate" viewBox="0 0 370 70" width="370pt" height="70pt"><defs><clipPath id="_clipPath_dJXplGmUlkpz0nocIlIK9CC3wrANQE1g"><rect width="370" height="70"/></clipPath></defs><g clip-path="url(#_clipPath_dJXplGmUlkpz0nocIlIK9CC3wrANQE1g)"><path d=" M 212.41 16.08 L 212.41 16.08 Q 217.99 16.08 222.1 17.94 L 222.1 17.94 L 222.1 17.94 Q 226.21 19.8 228.43 23.22 L 228.43 23.22 L 228.43 23.22 Q 230.65 26.64 230.65 31.32 L 230.65 31.32 L 230.65 31.32 Q 230.65 35.94 228.43 39.39 L 228.43 39.39 L 228.43 39.39 Q 226.21 42.84 222.1 44.67 L 222.1 44.67 L 222.1 44.67 Q 217.99 46.5 212.41 46.5 L 212.41 46.5 L 203.95 46.5 L 203.95 58.08 L 194.23 58.08 L 194.23 16.08 L 212.41 16.08 L 212.41 16.08 Z  M 211.87 38.58 L 211.87 38.58 Q 216.25 38.58 218.53 36.69 L 218.53 36.69 L 218.53 36.69 Q 220.81 34.8 220.81 31.32 L 220.81 31.32 L 220.81 31.32 Q 220.81 27.78 218.53 25.89 L 218.53 25.89 L 218.53 25.89 Q 216.25 24 211.87 24 L 211.87 24 L 203.95 24 L 203.95 38.58 L 211.87 38.58 L 211.87 38.58 Z  M 252.19 58.56 L 252.19 58.56 Q 247.09 58.56 243.04 56.43 L 243.04 56.43 L 243.04 56.43 Q 238.99 54.3 236.71 50.52 L 236.71 50.52 L 236.71 50.52 Q 234.43 46.74 234.43 41.94 L 234.43 41.94 L 234.43 41.94 Q 234.43 37.14 236.71 33.36 L 236.71 33.36 L 236.71 33.36 Q 238.99 29.58 243.04 27.45 L 243.04 27.45 L 243.04 27.45 Q 247.09 25.32 252.19 25.32 L 252.19 25.32 L 252.19 25.32 Q 257.29 25.32 261.31 27.45 L 261.31 27.45 L 261.31 27.45 Q 265.33 29.58 267.61 33.36 L 267.61 33.36 L 267.61 33.36 Q 269.89 37.14 269.89 41.94 L 269.89 41.94 L 269.89 41.94 Q 269.89 46.74 267.61 50.52 L 267.61 50.52 L 267.61 50.52 Q 265.33 54.3 261.31 56.43 L 261.31 56.43 L 261.31 56.43 Q 257.29 58.56 252.19 58.56 L 252.19 58.56 L 252.19 58.56 Z  M 252.19 50.88 L 252.19 50.88 Q 255.79 50.88 258.1 48.45 L 258.1 48.45 L 258.1 48.45 Q 260.41 46.02 260.41 41.94 L 260.41 41.94 L 260.41 41.94 Q 260.41 37.86 258.1 35.43 L 258.1 35.43 L 258.1 35.43 Q 255.79 33 252.19 33 L 252.19 33 L 252.19 33 Q 248.59 33 246.25 35.43 L 246.25 35.43 L 246.25 35.43 Q 243.91 37.86 243.91 41.94 L 243.91 41.94 L 243.91 41.94 Q 243.91 46.02 246.25 48.45 L 246.25 48.45 L 246.25 48.45 Q 248.59 50.88 252.19 50.88 L 252.19 50.88 L 252.19 50.88 Z  M 285.07 30.06 L 285.07 30.06 Q 286.75 27.72 289.6 26.52 L 289.6 26.52 L 289.6 26.52 Q 292.45 25.32 296.17 25.32 L 296.17 25.32 L 296.17 33.96 L 296.17 33.96 Q 294.61 33.84 294.07 33.84 L 294.07 33.84 L 294.07 33.84 Q 290.05 33.84 287.77 36.09 L 287.77 36.09 L 287.77 36.09 Q 285.49 38.34 285.49 42.84 L 285.49 42.84 L 285.49 58.08 L 276.13 58.08 L 276.13 25.8 L 285.07 25.8 L 285.07 30.06 L 285.07 30.06 Z  M 321.19 49.92 L 323.71 56.52 L 323.71 56.52 Q 322.33 57.54 320.32 58.05 L 320.32 58.05 L 320.32 58.05 Q 318.31 58.56 316.09 58.56 L 316.09 58.56 L 316.09 58.56 Q 310.33 58.56 307.18 55.62 L 307.18 55.62 L 307.18 55.62 Q 304.03 52.68 304.03 46.98 L 304.03 46.98 L 304.03 33.72 L 299.05 33.72 L 299.05 26.52 L 304.03 26.52 L 304.03 18.66 L 313.39 18.66 L 313.39 26.52 L 321.43 26.52 L 321.43 33.72 L 313.39 33.72 L 313.39 46.86 L 313.39 46.86 Q 313.39 48.9 314.44 50.01 L 314.44 50.01 L 314.44 50.01 Q 315.49 51.12 317.41 51.12 L 317.41 51.12 L 317.41 51.12 Q 319.63 51.12 321.19 49.92 L 321.19 49.92 L 321.19 49.92 Z  M 342.01 25.32 L 342.01 25.32 Q 349.51 25.32 353.53 28.89 L 353.53 28.89 L 353.53 28.89 Q 357.55 32.46 357.55 39.66 L 357.55 39.66 L 357.55 58.08 L 348.79 58.08 L 348.79 54.06 L 348.79 54.06 Q 346.15 58.56 338.95 58.56 L 338.95 58.56 L 338.95 58.56 Q 335.23 58.56 332.5 57.3 L 332.5 57.3 L 332.5 57.3 Q 329.77 56.04 328.33 53.82 L 328.33 53.82 L 328.33 53.82 Q 326.89 51.6 326.89 48.78 L 326.89 48.78 L 326.89 48.78 Q 326.89 44.28 330.28 41.7 L 330.28 41.7 L 330.28 41.7 Q 333.67 39.12 340.75 39.12 L 340.75 39.12 L 348.19 39.12 L 348.19 39.12 Q 348.19 36.06 346.33 34.41 L 346.33 34.41 L 346.33 34.41 Q 344.47 32.76 340.75 32.76 L 340.75 32.76 L 340.75 32.76 Q 338.17 32.76 335.68 33.57 L 335.68 33.57 L 335.68 33.57 Q 333.19 34.38 331.45 35.76 L 331.45 35.76 L 328.09 29.22 L 328.09 29.22 Q 330.73 27.36 334.42 26.34 L 334.42 26.34 L 334.42 26.34 Q 338.11 25.32 342.01 25.32 L 342.01 25.32 L 342.01 25.32 Z  M 341.29 52.26 L 341.29 52.26 Q 343.69 52.26 345.55 51.15 L 345.55 51.15 L 345.55 51.15 Q 347.41 50.04 348.19 47.88 L 348.19 47.88 L 348.19 44.58 L 341.77 44.58 L 341.77 44.58 Q 336.01 44.58 336.01 48.36 L 336.01 48.36 L 336.01 48.36 Q 336.01 50.16 337.42 51.21 L 337.42 51.21 L 337.42 51.21 Q 338.83 52.26 341.29 52.26 L 341.29 52.26 L 341.29 52.26 Z  M 67.45 58.56 L 67.45 58.56 Q 63.43 58.56 59.59 57.57 L 59.59 57.57 L 59.59 57.57 Q 55.75 56.58 53.47 55.08 L 53.47 55.08 L 56.59 48.36 L 56.59 48.36 Q 58.75 49.74 61.81 50.61 L 61.81 50.61 L 61.81 50.61 Q 64.87 51.48 67.81 51.48 L 67.81 51.48 L 67.81 51.48 Q 73.75 51.48 73.75 48.54 L 73.75 48.54 L 73.75 48.54 Q 73.75 47.16 72.13 46.56 L 72.13 46.56 L 72.13 46.56 Q 70.51 45.96 67.15 45.54 L 67.15 45.54 L 67.15 45.54 Q 63.19 44.94 60.61 44.16 L 60.61 44.16 L 60.61 44.16 Q 58.03 43.38 56.14 41.4 L 56.14 41.4 L 56.14 41.4 Q 54.25 39.42 54.25 35.76 L 54.25 35.76 L 54.25 35.76 Q 54.25 32.7 56.02 30.33 L 56.02 30.33 L 56.02 30.33 Q 57.79 27.96 61.18 26.64 L 61.18 26.64 L 61.18 26.64 Q 64.57 25.32 69.19 25.32 L 69.19 25.32 L 69.19 25.32 Q 72.61 25.32 76 26.07 L 76 26.07 L 76 26.07 Q 79.39 26.82 81.61 28.14 L 81.61 28.14 L 78.49 34.8 L 78.49 34.8 Q 74.23 32.4 69.19 32.4 L 69.19 32.4 L 69.19 32.4 Q 66.19 32.4 64.69 33.24 L 64.69 33.24 L 64.69 33.24 Q 63.19 34.08 63.19 35.4 L 63.19 35.4 L 63.19 35.4 Q 63.19 36.9 64.81 37.5 L 64.81 37.5 L 64.81 37.5 Q 66.43 38.1 69.97 38.64 L 69.97 38.64 L 69.97 38.64 Q 73.93 39.3 76.45 40.05 L 76.45 40.05 L 76.45 40.05 Q 78.97 40.8 80.83 42.78 L 80.83 42.78 L 80.83 42.78 Q 82.69 44.76 82.69 48.3 L 82.69 48.3 L 82.69 48.3 Q 82.69 51.3 80.89 53.64 L 80.89 53.64 L 80.89 53.64 Q 79.09 55.98 75.64 57.27 L 75.64 57.27 L 75.64 57.27 Q 72.19 58.56 67.45 58.56 L 67.45 58.56 L 67.45 58.56 Z  M 106.75 49.92 L 109.27 56.52 L 109.27 56.52 Q 107.89 57.54 105.88 58.05 L 105.88 58.05 L 105.88 58.05 Q 103.87 58.56 101.65 58.56 L 101.65 58.56 L 101.65 58.56 Q 95.89 58.56 92.74 55.62 L 92.74 55.62 L 92.74 55.62 Q 89.59 52.68 89.59 46.98 L 89.59 46.98 L 89.59 33.72 L 84.61 33.72 L 84.61 26.52 L 89.59 26.52 L 89.59 18.66 L 98.95 18.66 L 98.95 26.52 L 106.99 26.52 L 106.99 33.72 L 98.95 33.72 L 98.95 46.86 L 98.95 46.86 Q 98.95 48.9 100 50.01 L 100 50.01 L 100 50.01 Q 101.05 51.12 102.97 51.12 L 102.97 51.12 L 102.97 51.12 Q 105.19 51.12 106.75 49.92 L 106.75 49.92 L 106.75 49.92 Z  M 123.49 30.06 L 123.49 30.06 Q 125.17 27.72 128.02 26.52 L 128.02 26.52 L 128.02 26.52 Q 130.87 25.32 134.59 25.32 L 134.59 25.32 L 134.59 33.96 L 134.59 33.96 Q 133.03 33.84 132.49 33.84 L 132.49 33.84 L 132.49 33.84 Q 128.47 33.84 126.19 36.09 L 126.19 36.09 L 126.19 36.09 Q 123.91 38.34 123.91 42.84 L 123.91 42.84 L 123.91 58.08 L 114.55 58.08 L 114.55 25.8 L 123.49 25.8 L 123.49 30.06 L 123.49 30.06 Z  M 153.01 25.32 L 153.01 25.32 Q 160.51 25.32 164.53 28.89 L 164.53 28.89 L 164.53 28.89 Q 168.55 32.46 168.55 39.66 L 168.55 39.66 L 168.55 58.08 L 159.79 58.08 L 159.79 54.06 L 159.79 54.06 Q 157.15 58.56 149.95 58.56 L 149.95 58.56 L 149.95 58.56 Q 146.23 58.56 143.5 57.3 L 143.5 57.3 L 143.5 57.3 Q 140.77 56.04 139.33 53.82 L 139.33 53.82 L 139.33 53.82 Q 137.89 51.6 137.89 48.78 L 137.89 48.78 L 137.89 48.78 Q 137.89 44.28 141.28 41.7 L 141.28 41.7 L 141.28 41.7 Q 144.67 39.12 151.75 39.12 L 151.75 39.12 L 159.19 39.12 L 159.19 39.12 Q 159.19 36.06 157.33 34.41 L 157.33 34.41 L 157.33 34.41 Q 155.47 32.76 151.75 32.76 L 151.75 32.76 L 151.75 32.76 Q 149.17 32.76 146.68 33.57 L 146.68 33.57 L 146.68 33.57 Q 144.19 34.38 142.45 35.76 L 142.45 35.76 L 139.09 29.22 L 139.09 29.22 Q 141.73 27.36 145.42 26.34 L 145.42 26.34 L 145.42 26.34 Q 149.11 25.32 153.01 25.32 L 153.01 25.32 L 153.01 25.32 Z  M 152.29 52.26 L 152.29 52.26 Q 154.69 52.26 156.55 51.15 L 156.55 51.15 L 156.55 51.15 Q 158.41 50.04 159.19 47.88 L 159.19 47.88 L 159.19 44.58 L 152.77 44.58 L 152.77 44.58 Q 147.01 44.58 147.01 48.36 L 147.01 48.36 L 147.01 48.36 Q 147.01 50.16 148.42 51.21 L 148.42 51.21 L 148.42 51.21 Q 149.83 52.26 152.29 52.26 L 152.29 52.26 L 152.29 52.26 Z " fill="rgb(0,0,0)"/><g clip-path="url(#_clipPath_OYMumC6mvVvY9LZJCVRsohjdfPeLYPpB)"><text transform="matrix(-1,0,0,-1,51.37,15.95)" style="font-family:'Montserrat';font-weight:700;font-size:60px;font-style:normal;fill:#000000;stroke:none;">V</text></g><defs><clipPath id="_clipPath_OYMumC6mvVvY9LZJCVRsohjdfPeLYPpB"><rect x="0" y="0" width="60" height="70" transform="matrix(-1,0,0,-1,57.99,74.03)"/></clipPath></defs></g></svg>